/* XPM */
static const char * fl_cursor_nesw_xpm[] = {
"15 15 28 1",
" 	c None",
".	c #FFFFFF",
"+	c #767676",
"@	c #000000",
"#	c #4E4E4E",
"$	c #0C0C0C",
"%	c #494949",
"&	c #4D4D4D",
"*	c #1B1B1B",
"=	c #515151",
"-	c #646464",
";	c #363636",
">	c #6A6A6A",
",	c #545454",
"'	c #585858",
")	c #242424",
"!	c #797979",
"~	c #2E2E2E",
"{	c #444444",
"]	c #3B3B3B",
"^	c #0A0A0A",
"/	c #595959",
"(	c #F7F7F7",
"_	c #080808",
":	c #6B6B6B",
"<	c #FDFDFD",
"[	c #FCFCFC",
"}	c #FEFEFE",
"     ..........",
"      .+@@@@@@.",
"       .#@@@@@.",
"        .$@@@@.",
"       .%@@@@@.",
".     .&@@@*@@.",
"..   .=@@@-.;@.",
".>. .,@@@'. .).",
".@!.'@@@#.   ..",
".@@~@@@{.     .",
".@@@@@].       ",
".@@@@^.        ",
".@@@@@/(       ",
".______:(      ",
"<[[[[[[[[}     "};
