/* XPM */
static const char * fl_cursor_wait_xpm[] = {
"17 32 37 1",
" 	c None",
".	c #FFFFFF",
"+	c #2E2E2E",
"@	c #202020",
"#	c #F1F1F1",
"$	c #2D2D2D",
"%	c #000000",
"&	c #EDEDED",
"*	c #585858",
"=	c #575757",
"-	c #FBFBFB",
";	c #848484",
">	c #B8B8B8",
",	c #E5E5E5",
"'	c #F7F7F7",
")	c #181818",
"!	c #F0F0F0",
"~	c #616161",
"{	c #B7B7B7",
"]	c #F5F5F5",
"^	c #050505",
"/	c #D4D4D4",
"(	c #EEEEEE",
"_	c #595959",
":	c #7B7B7B",
"<	c #E9E9E9",
"[	c #131313",
"}	c #E3E3E3",
"|	c #767676",
"1	c #505050",
"2	c #F3F3F3",
"3	c #2A2A2A",
"4	c #070707",
"5	c #343434",
"6	c #939393",
"7	c #191919",
"8	c #6A6A6A",
".................",
".+@@@@@@@@@@@@@+.",
".................",
" #$%%%%%%%%%%%$# ",
" &*%%%%%%%%%%%=& ",
" -;%%%%%%%%%%%;- ",
"  >%%%%%%%%%%%>  ",
"  ,%%%%%%%%%%%,  ",
"  ')%%%%%%%%%)'  ",
"  !~%%%%%%%%%~!  ",
"   {%%%%%%%%%{   ",
"   ]^/...../^]   ",
"   (_:.....:_(   ",
"    <[}...}[<    ",
"    !|1...1|!    ",
"     2[3.3[2     ",
"     2[%.%[2     ",
"    !|%%.%%|!    ",
"    <4%%.%%4<    ",
"   (_%%%.%%%_(   ",
"   ]^%%%.%%%^]   ",
"   {%%%%.%%%%{   ",
"  !~%%%%.%%%%~!  ",
"  ')%%%%.%%%%)'  ",
"  ,%%56{.{65%%,  ",
"  >%*.......*%>  ",
" -;7&.......&7;- ",
" &*8.........8=& ",
" #$%%%%%%%%%%%$# ",
".................",
".+@@@@@@@@@@@@@+.",
"................."};
