/* XPM */
static const char * fl_cursor_help_xpm[] = {
"16 27 65 1",
" 	c None",
".	c #FFFFFF",
"+	c #E2E2E2",
"@	c #1C1C1C",
"#	c #E7E7E7",
"$	c #000000",
"%	c #212121",
"&	c #EAEAEA",
"*	c #262626",
"=	c #EDEDED",
"-	c #2C2C2C",
";	c #F0F0F0",
">	c #333333",
",	c #F1F1F1",
"'	c #393939",
")	c #F3F3F3",
"!	c #404040",
"~	c #484848",
"{	c #F4F4F4",
"]	c #050505",
"^	c #202020",
"/	c #707070",
"(	c #F5F5F5",
"_	c #040404",
":	c #E1E1E1",
"<	c #EEEEEE",
"[	c #EFEFEF",
"}	c #FEFEFE",
"|	c #3D3D3D",
"1	c #7E7E7E",
"2	c #696969",
"3	c #414141",
"4	c #131313",
"5	c #080808",
"6	c #454545",
"7	c #F2F2F2",
"8	c #878787",
"9	c #7D7D7D",
"0	c #101010",
"a	c #111111",
"b	c #FDFDFD",
"c	c #8A8A8A",
"d	c #E6E6E6",
"e	c #7B7B7B",
"f	c #4C4C4C",
"g	c #5C5C5C",
"h	c #9F9F9F",
"i	c #F9F9F9",
"j	c #F7F7F7",
"k	c #B1B1B1",
"l	c #2E2E2E",
"m	c #767676",
"n	c #DCDCDC",
"o	c #DEDEDE",
"p	c #C7C7C7",
"q	c #1B1B1B",
"r	c #6B6B6B",
"s	c #575757",
"t	c #797979",
"u	c #020202",
"v	c #010101",
"w	c #FBFBFB",
"x	c #D7D7D7",
"y	c #D8D8D8",
"z	c #060606",
"                ",
".               ",
".+              ",
".@#             ",
".$%&            ",
".$$*=           ",
".$$$-;          ",
".$$$$>,         ",
".$$$$$')        ",
".$$$$$$!)       ",
".$$$$$$$~{      ",
".$$$$]^^^/(     ",
".$$$$_:(<<[}    ",
".$$|1$2<        ",
".$3,(45[        ",
".67 78$9,       ",
".7   {0a( ....  ",
"b    ,c5[defgh, ",
"      )ijk_la$m.",
"         no.p$q.",
"           .r$s.",
"          .t$-= ",
"          7uv+  ",
"          wxy.  ",
"          :$z.  ",
"          :$z.  ",
"          ....  "};
