#define ns_width 16
#define ns_height 16
#define ns_x_hot 8
#define ns_y_hot 8
static unsigned char ns_bits[] = {
   0x00, 0x00, 0x80, 0x01, 0xc0, 0x03, 0xe0, 0x07, 0x80, 0x01, 0x80, 0x01,
   0x80, 0x01, 0x80, 0x01, 0x80, 0x01, 0x80, 0x01, 0x80, 0x01, 0x80, 0x01,
   0xe0, 0x07, 0xc0, 0x03, 0x80, 0x01, 0x00, 0x00};
