#define up_width 16
#define up_height 16
static unsigned char up_bits[] = {
   0x00, 0x00, 0x78, 0x00, 0x84, 0x00, 0x02, 0x01, 0x31, 0xfe, 0x79, 0x80,
   0xfd, 0x80, 0x31, 0x80, 0x31, 0x80, 0x31, 0x80, 0x31, 0x80, 0x31, 0x80,
   0x01, 0x80, 0x01, 0x80, 0xff, 0xff, 0x00, 0x00};
