/* XPM */
static char *insecure[] = {
/* columns rows colors chars-per-pixel */
"15 15 50 1 ",
"  c black",
". c #020000",
"X c #050000",
"o c #080000",
"O c #0A0000",
"+ c #0C0000",
"@ c #0D0000",
"# c #0F0000",
"$ c #100000",
"% c #110000",
"& c #120000",
"* c #140000",
"= c #290000",
"- c #330000",
"; c #370000",
": c #430000",
"> c #560000",
", c #620000",
"< c #660000",
"1 c #6C0000",
"2 c #7D0000",
"3 c #800000",
"4 c #810000",
"5 c #840000",
"6 c #870000",
"7 c #950000",
"8 c #A20000",
"9 c #AB0000",
"0 c #B30000",
"q c #B40000",
"w c #C00000",
"e c #C40000",
"r c #CD0000",
"t c #DC0000",
"y c #DD0000",
"u c #DF0000",
"i c #E40000",
"p c #E50000",
"a c #E60000",
"s c #EA0000",
"d c #EB0000",
"f c #ED0000",
"g c #F00000",
"h c #F40000",
"j c #F90000",
"k c #FA0000",
"l c #FB0000",
"z c #FC0000",
"x c #FD0000",
"c c red",
/* pixels */
"ccccccccccccccc",
"ccccccjpkcr:fcc",
"ccccz6+ @1$ rcc",
"cccc2 O-o  wccc",
"cccdX%tr# 4cccc",
"ccce >r& 7czccc",
"ccq< =O 8cg60cc",
"cs.    3cg;  ac",
"cu    3cg;   uc",
"cu   3cg;    uc",
"c0  3cg;     uc",
"r$ 3cg;      uc",
", 5cg;      *hc",
"l9lxiyyyyyyyhcc",
"ccccccccccccccc"
};
