/* XPM */
static char *insecure[] = {
/* columns rows colors chars-per-pixel */
"16 16 22 1 ",
"  c #000000",
". c #040000",
"X c #0D0000",
"o c #120000",
"O c #3A0000",
"+ c #3D0000",
"@ c #4B0000",
"# c #530000",
"$ c #5B0000",
"% c #770000",
"& c #810000",
"* c #8E0000",
"= c #940000",
"- c #980000",
"; c #AB0000",
": c #BB0000",
"> c #C00000",
", c #DC0000",
"< c #E30000",
"1 c #E40000",
"2 c #FC0000",
"3 c #FF0000",
/* pixels */
"3333333333333333",
"33333333333;%333",
"33333<#XX#*. ,33",
"3333<o      :333",
"3333# @1-  =3333",
"3333X <;. %33333",
"3333  ;. :333333",
"33O     &33$ O33",
"33     %33$   33",
"33    &33$    33",
"33   &33$     33",
"3;  &33$      33",
";. &33$       33",
"& *33$       +33",
"3>33333333333333",
"3333333333333333"
};
