/* XPM */
static char *secure[] = {
/* columns rows colors chars-per-pixel */
"16 16 12 1 ",
"  c #000000",
". c #000D00",
"X c #001200",
"o c #003A00",
"O c #003C00",
"+ c #004B00",
"@ c #005300",
"# c #005500",
"$ c #00D800",
"% c #00E300",
"& c #00E400",
"* c #00FF00",
/* pixels */
"****************",
"****************",
"*****%@..@$*****",
"****%X    .%****",
"****@ +&%+ #****",
"****. %**% .****",
"****  ****  ****",
"**o          O**",
"**            **",
"**            **",
"**            **",
"**            **",
"**            **",
"**O          O**",
"****************",
"****************"
};
