/* XPM */
static char *secure[] = {
/* columns rows colors chars-per-pixel */
"15 15 35 1 ",
"  c black",
". c #000200",
"X c #000500",
"o c #000A00",
"O c #000C00",
"+ c #000D00",
"@ c #001000",
"# c #001100",
"$ c #001400",
"% c #003300",
"& c #005500",
"* c #005600",
"= c #006600",
"- c #007D00",
"; c #007E00",
": c #008700",
"> c #008800",
", c #00B300",
"< c #00B400",
"1 c #00C400",
"2 c #00DB00",
"3 c #00DC00",
"4 c #00DD00",
"5 c #00DF00",
"6 c #00E500",
"7 c #00E600",
"8 c #00EA00",
"9 c #00EB00",
"0 c #00ED00",
"q c #00F000",
"w c #00F400",
"e c #00F900",
"r c #00FA00",
"t c #00FC00",
"y c green",
/* pixels */
"yyyyyyyyyyyyyyy",
"yyyyyye6ryyyyyy",
"yyyyt:O +>tyyyy",
"yyyy- o%o ;yyyy",
"yyy9X#3y2@X0yyy",
"yyy1 *yyy& 1yyy",
"yy<= %>>>% =,yy",
"y8.          7y",
"y5           5y",
"y5           5y",
"y5           5y",
"y5           5y",
"yw#         $wy",
"yyq444444444wyy",
"yyyyyyyyyyyyyyy"
};
