/* XPM */
static const char *tigervnc_logo[] = {
/* columns rows colors chars-per-pixel */
"146 32 163 2 ",
"   c #000000",
".  c #0A0502",
"X  c #090907",
"o  c #0B0B0B",
"O  c #100703",
"+  c #100904",
"@  c #1C0E05",
"#  c #10120C",
"$  c #1B110B",
"%  c #141413",
"&  c #171812",
"*  c #191A13",
"=  c #1A1A1A",
"-  c #251206",
";  c #2E1607",
":  c #23150C",
">  c #2F1708",
",  c #29190F",
"<  c #301708",
"1  c #341A09",
"2  c #3A1D0A",
"3  c #06220E",
"4  c #2F251F",
"5  c #272D1E",
"6  c #282E1F",
"7  c #302117",
"8  c #3E2B1E",
"9  c #232323",
"0  c #2D2D2D",
"q  c #383A2E",
"w  c #323232",
"e  c #3B3B3B",
"r  c #44220B",
"t  c #4B250C",
"y  c #532A0E",
"u  c #5C2D0F",
"i  c #502D15",
"p  c #653211",
"a  c #6B3512",
"s  c #6D3816",
"d  c #6F3B18",
"f  c #743913",
"g  c #7A3C14",
"h  c #422F22",
"j  c #423226",
"k  c #443429",
"l  c #513828",
"z  c #5D4737",
"x  c #724629",
"c  c #424242",
"v  c #484843",
"b  c #4C4C4C",
"n  c #5A4A40",
"m  c #525252",
"M  c #5A5A5A",
"N  c #6B7151",
"B  c #767956",
"V  c #626262",
"C  c #6C6C6C",
"Z  c #737373",
"A  c #7A7A7A",
"S  c #864316",
"D  c #8B4517",
"F  c #954A19",
"G  c #9B4D19",
"H  c #A4521B",
"J  c #AC561C",
"K  c #B3591E",
"L  c #BC5E1E",
"P  c #C56321",
"I  c #CC6622",
"U  c #D46A23",
"Y  c #D86C23",
"T  c #E37126",
"R  c #E97526",
"E  c #EE7728",
"W  c #F57A29",
"Q  c #FF7F2A",
"!  c #2F863E",
"~  c #6B8D59",
"^  c #728158",
"/  c #689158",
"(  c #46AC54",
")  c #67D26E",
"_  c #77D776",
"`  c #7FDA7A",
"'  c #FF822E",
"]  c #FF8432",
"[  c #FF8838",
"{  c #868F64",
"}  c #91986B",
"|  c #8B827C",
" . c #928379",
".. c #8CB673",
"X. c #97BE7A",
"o. c #FF8D42",
"O. c #FA9552",
"+. c #FF9650",
"@. c #FF9D5C",
"#. c #D6956A",
"$. c #FFA162",
"%. c #FFA66A",
"&. c #FFA86E",
"*. c #FFAA71",
"=. c #FFAF7A",
"-. c #FFB17E",
";. c #83DA7C",
":. c #858585",
">. c #8C8C8C",
",. c #98998F",
"<. c #939393",
"1. c #9C9C9C",
"2. c #A48F80",
"3. c #B99E8C",
"4. c #A1A19F",
"5. c #A4A4A4",
"6. c #ABABAB",
"7. c #B3B1AF",
"8. c #B4B4B4",
"9. c #BBBBBB",
"0. c #D2A98E",
"q. c #DAB69D",
"w. c #FFB483",
"e. c #FFBA8D",
"r. c #FEBE92",
"t. c #C9B1A1",
"y. c #94DF84",
"u. c #95E085",
"i. c #A5E58D",
"p. c #AAE78F",
"a. c #ABE790",
"s. c #B3EA94",
"d. c #BAEC98",
"f. c #C3D895",
"g. c #F5C09D",
"h. c #FFC29A",
"j. c #C9E69B",
"k. c #EFC7AB",
"l. c #FFC7A2",
"z. c #F5CBAF",
"x. c #FFCEAD",
"c. c #E5C6B2",
"v. c #FECFB0",
"b. c #C4C4C4",
"n. c #C8C8C6",
"m. c #CBCBCB",
"M. c #D4D4D4",
"N. c #D9D9D3",
"B. c #DDDDDD",
"V. c #FFDEC8",
"C. c #E3DDDA",
"Z. c #FFE1CD",
"A. c #ECE1DA",
"S. c #FFE9DB",
"D. c #E4E4E4",
"F. c #ECECEC",
"G. c #FDEDE3",
"H. c #FFF0E7",
"J. c #FFF4ED",
"K. c #F4F4F4",
"L. c #FFF8F4",
"P. c #FDFDFC",
"I. c white",
/* pixels */
"I.I.I.I.5.b =                                     = b 5.I.I.I.I.I.I.I.I.I.I.I.I.I.I.I.I.I.I.I.I.I.I.I.I.I.I.I.I.I.I.I.I.I.I.I.I.I.I.I.I.I.I.I.I.I.I.I.I.I.I.I.I.I.I.I.I.I.I.I.I.I.I.I.I.I.I.I.I.I.I.I.I.I.I.I.I.I.I.I.I.I.I.I.I.I.I.I.I.I.I.I.I.I.I.I.I.I.I.I.I.I.I.I.I.I.I.I.I.I.I.I.I.I.I.I.I.I.I.",
"I.I.B.w                                                 0 N.I.I.I.I.I.I.I.I.I.I.I.I.I.I.I.I.I.I.I.I.I.I.I.I.I.I.I.I.I.I.I.I.I.I.I.I.I.I.I.I.I.I.I.I.I.I.I.I.I.I.I.I.I.I.I.I.I.I.I.I.I.I.I.I.I.I.I.I.I.I.I.I.I.I.I.I.I.I.I.I.I.I.I.I.I.I.I.I.I.I.I.I.I.I.I.I.I.I.I.I.I.I.I.I.I.I.I.I.I.I.I.I.I.I.I.I.",
"I.B.%     z 0.z.v.q.3.w.*.$.+.x $ W Q Q Q Q Q Q T H 2     % N.I.I.I.I.I.I.I.I.I.I.I.I.I.I.I.I.I.I.I.I.I.I.I.I.I.I.I.I.I.I.I.I.I.I.I.I.I.I.I.I.I.I.I.I.I.I.I.I.I.I.I.I.I.I.I.I.I.I.I.I.I.I.I.I.I.I.I.I.I.I.I.I.I.I.I.I.I.I.I.I.I.I.I.I.I.I.I.I.I.I.I.I.I.I.I.I.I.I.I.I.I.I.I.I.I.I.I.I.I.I.I.I.I.I.I.",
"I.w   . :.G.S.V.x.g.2.w.*.$.O.4 d Q Q Q Q Q Q Q Q Q Q F     0 I.I.I.I.I.I.I.I.I.I.I.I.I.I.I.I.I.I.I.I.I.I.I.I.I.I.I.I.I.I.I.I.I.I.I.I.I.I.I.I.I.I.I.I.I.I.I.I.I.I.I.I.I.I.I.I.I.I.I.I.I.I.I.I.I.I.I.I.I.I.I.I.I.I.I.I.I.I.I.I.I.I.I.I.I.I.I.I.I.I.I.I.I.I.I.I.I.I.I.I.I.I.I.I.I.I.I.I.I.I.I.I.I.I.I.",
"5.    3.I.A.*.] Q Q y Q Q Q D   I Q Q Q Q Q T P P I W Q F     1.I.I.I.I.I.I.I.I.I.I.I.I.I.I.I.I.I.I.I.I.I.I.I.I.I.I.I.I.I.I.I.I.I.I.I.I.I.I.I.I.I.I.I.I.I.I.I.I.I.I.I.I.I.I.I.I.I.I.I.I.I.I.I.I.I.I.I.I.I.I.I.I.I.I.I.I.I.I.I.I.I.I.I.I.I.I.I.I.I.I.I.I.I.I.I.I.I.I.I.I.I.I.I.I.I.I.I.I.I.I.I.I.I.I.",
"b   z H.C.j Q Q Q Q J W Q E @ y Q Q Q U g <         O y P r   v I.I.I.I.I.I.I.I.I.I.I.I.I.I.I.I.I.I.I.I.I.I.I.I.I.I.I.I.I.I.I.I.I.I.I.I.I.I.I.I.I.I.I.I.I.I.I.I.I.I.I.I.I.I.I.I.I.I.I.I.I.I.I.I.I.I.I.I.I.I.I.I.I.I.I.I.I.I.I.I.I.I.I.I.I.I.I.I.I.I.I.I.I.I.I.I.I.I.I.I.I.I.I.I.I.I.I.I.I.I.I.I.I.I.",
"=   0.S.#.  K Q Q Q Q Q Q g   P Q I t       : h l 8 :   . g   % I.I.I.I.I.I.I.I.I.I.I.I.I.I.I.I.I.I.I.I.I.I.I.D.C V N.I.I.I.I.I.I.I.I.I.I.I.I.I.I.I.I.I.I.I.I.I.I.I.I.I.I.I.I.I.I.I.I.I.I.I.I.I.I.I.I.I.I.I.I.I.I.I.I.I.I.I.I.I.I.I.I.I.I.I.I.I.I.I.I.I.I.I.I.I.I.I.I.I.I.I.I.I.I.I.I.I.I.I.I.I.I.I.",
"    z.V.] < g Q Q Q Q Q Q - g Q Q 2 . j  .M.I.I.I.I.I.D.7.t.    I.I.I.I.I.I.I.I.I.I.I.I.I.I.I.I.I.I.I.I.I.I.I.e     = I.I.I.I.I.I.I.I.I.I.I.I.I.I.I.I.I.I.I.I.I.I.I.I.I.I.I.I.I.I.I.I.I.I.I.I.I.I.I.I.I.I.I.I.I.I.I.I.I.I.I.I.I.I.I.I.I.I.I.I.I.I.I.I.I.I.I.I.I.I.I.I.I.I.I.I.I.I.I.F.9.6.8.m.K.I.I.",
"    x.x.Q y p Q Q o.@.+.[ Y Q ] $.k.K.I.I.I.I.I.I.I.I.I.I.I..   K.I.I.I.I.I.I.I.X                         8.I.%       F.I.I.I.I.I.I.I.I.I.I.I.I.I.I.I.I.I.I.I.I.I.I.I.I.I.I.I.I.I.I.I.I.I.I.I.I.I.n.      c I.I.I.I.I.I.I.m.      M I.D.      6.I.I.I.I.I.I.%     M I.I.I.I.I.I.8.e           . b 9.",
"    l.h.Q t s w.S.I.I.I.I.J.G.L.I.I.I.I.F.I.I.I.8.b 5.I.I.I.X   K.I.I.I.I.I.I.I.X                         8.I.C     c I.I.I.I.I.I.I.I.I.I.I.I.I.I.I.I.I.I.I.I.I.I.I.I.I.I.I.I.I.I.I.I.I.I.I.I.I.I.I.9       F.I.I.I.I.I.I.Z       8.I.D.      X n.I.I.I.I.I.%     M I.I.I.I.I.C                   Z ",
"    r.e.Q - | I.I.K.6.I.I.I.I.M.A e % o o % 9 = o o 5.I.I.I.X   K.I.I.I.I.I.I.I.X                         8.I.I.9.8.I.I.I.I.I.I.I.I.I.I.I.I.I.I.I.I.I.I.I.I.I.I.I.I.I.I.I.I.I.I.I.I.I.I.I.I.I.I.I.I.A       <.I.I.I.I.I.I.9     % I.I.D.        % D.I.I.I.I.%     M I.I.I.I.C           9 9 X     M.",
"    w.-.T   6.I.I.m.5.I.I.N.q 6 ^ { *           9 :.I.I.I.H..   K.I.I.I.I.I.I.I.F.F.F.F.M.      A F.F.F.F.I.I.F.B.B.D.I.I.I.I.I.I.D.6.1.1.8.N.I.I.I.I.I.I.I.I.9.<.<.8.K.I.I.I.I.I.I.I.D.8.5.1.8.D.I.M.      c I.I.I.I.I.m.      C I.I.D.          e I.I.I.I.%     M I.I.I.b.      X <.K.I.I.I.8.Z I.",
"    *.&.H   n.I.I.F.v D.4.# ~ y.u.s.f.o     = w M.I.I.I.h.] .   K.I.I.I.I.I.I.I.I.I.I.I.B.      :.I.I.I.I.I.I.V     0 I.I.I.I.N.v             X <.I.I.I.I.9.9         % 5.I.I.I.I.:.9             K.I.e       D.I.I.I.I.Z       m.I.I.D.            C I.I.I.%     M I.I.I.b       5.I.I.I.I.I.I.I.I.",
"    $.@.f   M.I.F.C 9   & X.;.( ( ` d.B X X M I.I.I.L.@.Q Q .   K.I.I.I.I.I.I.I.I.I.I.I.B.      :.I.I.I.I.I.I.V     0 I.I.I.M.o                 A I.I.I.8..               1.I.I.I.c             9 I.I.<.      >.I.I.I.I.=     0 I.I.I.D.      =       8.I.I.%     M I.I.K..     w I.I.I.I.I.I.I.I.I.",
"    +.+.u   0 9 o       } a.) 3 3 ) p.N   A I.I.I.I.*.Q Q Q .   K.I.I.I.I.I.I.I.I.I.I.I.B.      :.I.I.I.I.I.I.V     0 I.I.I.w       M 1.1.o     A I.I.K.%     = :.:.9     % K.I.I.c     = C C m Z I.I.F.X     e I.I.I.9.      >.I.I.I.D.      :.c     % D.I.%     M I.I.n.      A I.I.I.I.I.I.I.I.I.",
"    o.o.g     X X       B s._ ! ! _ ..X Z I.I.I.I.Z.Q Q W W .   K.I.I.I.I.I.I.I.I.I.I.I.B.      :.I.I.I.I.I.I.V     0 I.I.n.      Z I.I.I.=     A I.I.<.    . N.I.I.D.X     6.I.I.c     m I.I.I.I.I.I.I.M       N.I.I.V     . F.I.I.I.D.      >.F.9     c I.%     M I.I.8.      <.I.I.I.I.I.I.I.I.I.",
"    ' ] I . 9 m.b.>.b o & j.i.;.;./ X w I.I.I.I.I.%.Q Q T T .   K.I.I.I.I.I.I.I.I.I.I.I.B.      :.I.I.I.I.I.I.V     0 I.I.>.      B.I.I.I.=     A I.I.m     9 6.6.6.6.9     A I.I.c     m I.I.I.I.I.I.I.b.      A I.K.o     m I.I.I.I.D.      >.I.m..     <.%     M I.I.8.      :.I.I.I.I.I.I.I.I.I.",
"    Q Q Q H + = C 8.I.N.c o 5 5 #   v F.I.I.I.I.S.Q Q Q U U .   K.I.I.I.I.I.I.I.I.I.I.I.B.      :.I.I.I.I.I.I.V     0 I.I.A       I.I.I.I.=     A I.I.e                     C I.I.c     m I.I.I.I.I.I.I.I.0     = I.5.      9.I.I.I.I.D.      >.I.I.:.    X .     M I.I.b.      C I.I.I.I.I.I.I.I.I.",
"    Q Q Q Q Y i     b D.I.K.8.,.,.n.I.I.I.I.I.I.@.Q Q Q P L .   K.I.I.I.I.I.I.I.I.I.I.I.B.      :.I.I.I.I.I.I.V     0 I.I.:.      D.I.I.I.=     A I.I.e                     Z I.I.c     m I.I.I.I.I.I.I.I.<.      8.c     0 I.I.I.I.I.D.      >.I.I.I.e           M I.I.F.      0 I.I.I.I.I.I.I.I.I.",
"    Q Q Q Q Q Q K ,   = 8.I.I.I.I.I.I.I.I.I.I.=.Q Q Q Q K J .   K.I.I.I.I.I.I.I.I.I.I.I.B.      :.I.I.I.I.I.I.V     0 I.I.8.      A I.I.I.%     A I.I.m     = F.F.F.F.F.F.F.K.I.I.c     m I.I.I.I.I.I.I.I.K.X     e       <.I.I.I.I.I.D.      >.I.I.I.N..         M I.I.I.0       5.I.I.I.I.I.I.I.I.",
"    Q Q Q Q Q Q Q W p   . V 5.n.K.I.I.I.I.G.@.Q Q Q Q Q G D     K.I.I.I.I.I.I.I.I.I.I.I.B.      :.I.I.I.I.I.I.V     0 I.I.K.=       e M 0       A I.I.<.      A I.I.I.I.I.F.I.I.I.c     m I.I.I.I.I.I.I.I.I.C           o K.I.I.I.I.I.D.      >.I.I.I.I.A         M I.I.I.1.      . :.F.I.I.I.m.Z D.",
"    Q Q Q Q Q Q Q Q Q G @   . 7 k n c.x.%.' Q Q Q Q Q Q S @     K.I.I.I.I.I.I.I.I.I.I.I.B.      :.I.I.I.I.I.I.V     0 I.I.I.6.                  A I.I.K.%       = b b e o Z I.I.I.c     m I.I.I.I.I.I.I.I.I.B.          Z I.I.I.I.I.I.D.      >.I.I.I.I.K.9       M I.I.I.I.e           % % .     >.",
"    Q Q Q Q Q Q Q Q Q Q Q R W Q Q Q Q Q Q Q Q Q Q Q Q W -       K.I.I.I.I.I.I.I.I.I.I.I.B.      :.I.I.I.I.I.I.V     0 I.I.I.I.9.e       9 X     A I.I.I.9.o               b I.I.I.c     m I.I.I.I.I.I.I.I.I.I.m       . D.I.I.I.I.I.I.D.      >.I.I.I.I.I.9.      M I.I.I.I.F.e                   e ",
"    W Q Q Q Q Q Q Q Q Q Q Q Q Q Q Q Q Q Q Q Q Q Q Q W u         K.I.I.I.I.I.I.I.I.I.I.I.D.. . . :.I.I.I.I.I.I.V     0 I.I.I.I.I.I.F.N.D.I.X     >.I.I.I.I.N.m .         o V I.I.I.c     m I.I.I.I.I.I.I.I.I.I.b.      M I.I.I.I.I.I.I.D.      >.I.I.I.I.I.I.m     M I.I.I.I.I.I.<.0           . v 6.",
"    T Q Q Q p t I Q Q Q Q Q Q Q Q Q Q Q Q Q Q Q Q Y 2     .     I.I.I.I.I.I.I.I.I.I.I.I.I.I.I.I.I.I.I.I.I.I.I.I.I.I.I.I.I.I.F.K.I.I.I.I.1.      9.I.I.I.I.I.I.K.m.9.9.N.I.I.I.I.I.I.I.I.I.I.I.I.I.I.I.I.I.I.I.I.I.I.I.I.I.I.I.I.I.I.I.I.I.I.I.I.I.I.I.I.I.I.I.I.I.I.I.I.I.I.I.I.I.I.F.n.9.9.N.I.I.I.",
"=   H Q Q Q L + . f T Q Q Q Q Q Q Q Q Q Q Q Q T g +     . r   % I.I.I.I.I.I.I.I.I.I.I.I.I.I.I.I.I.I.I.I.I.I.I.I.I.I.I.I.I.I.:.. e m V e       = K.I.I.I.I.I.I.I.I.I.I.I.I.I.I.I.I.I.I.I.I.I.I.I.I.I.I.I.I.I.I.I.I.I.I.I.I.I.I.I.I.I.I.I.I.I.I.I.I.I.I.I.I.I.I.I.I.I.I.I.I.I.I.I.I.I.I.I.I.I.I.I.I.I.",
"b   1 Q Q Q Q I <   . p K W Q Q Q Q Q Q W H y .       . @ <   v I.I.I.I.I.I.I.I.I.I.I.I.I.I.I.I.I.I.I.I.I.I.I.I.I.I.I.I.I.I.b                 8.I.I.I.I.I.I.I.I.I.I.I.I.I.I.I.I.I.I.I.I.I.I.I.I.I.I.I.I.I.I.I.I.I.I.I.I.I.I.I.I.I.I.I.I.I.I.I.I.I.I.I.I.I.I.I.I.I.I.I.I.I.I.I.I.I.I.I.I.I.I.I.I.I.I.",
"5.    D Q Q Q Q W F @     @ y g D D f t +         ; @   r     1.I.I.I.I.I.I.I.I.I.I.I.I.I.I.I.I.I.I.I.I.I.I.I.I.I.I.I.I.I.I.V o           e b.I.I.I.I.I.I.I.I.I.I.I.I.I.I.I.I.I.I.I.I.I.I.I.I.I.I.I.I.I.I.I.I.I.I.I.I.I.I.I.I.I.I.I.I.I.I.I.I.I.I.I.I.I.I.I.I.I.I.I.I.I.I.I.I.I.I.I.I.I.I.I.I.I.I.I.",
"I.w     D Q Q Q Q Q W G 2                   @ 1 2 > @ r     0 I.I.I.I.I.I.I.I.I.I.I.I.I.I.I.I.I.I.I.I.I.I.I.I.I.I.I.I.I.I.I.I.I.N.b.8.b.F.I.I.I.I.I.I.I.I.I.I.I.I.I.I.I.I.I.I.I.I.I.I.I.I.I.I.I.I.I.I.I.I.I.I.I.I.I.I.I.I.I.I.I.I.I.I.I.I.I.I.I.I.I.I.I.I.I.I.I.I.I.I.I.I.I.I.I.I.I.I.I.I.I.I.I.I.I.",
"I.B.%     1 H T W Q Q Q Q Y G p t t y p f g a u y y ;     % N.I.I.I.I.I.I.I.I.I.I.I.I.I.I.I.I.I.I.I.I.I.I.I.I.I.I.I.I.I.I.I.I.I.I.I.I.I.I.I.I.I.I.I.I.I.I.I.I.I.I.I.I.I.I.I.I.I.I.I.I.I.I.I.I.I.I.I.I.I.I.I.I.I.I.I.I.I.I.I.I.I.I.I.I.I.I.I.I.I.I.I.I.I.I.I.I.I.I.I.I.I.I.I.I.I.I.I.I.I.I.I.I.I.I.I.",
"I.I.B.w                                                 0 N.I.I.I.I.I.I.I.I.I.I.I.I.I.I.I.I.I.I.I.I.I.I.I.I.I.I.I.I.I.I.I.I.I.I.I.I.I.I.I.I.I.I.I.I.I.I.I.I.I.I.I.I.I.I.I.I.I.I.I.I.I.I.I.I.I.I.I.I.I.I.I.I.I.I.I.I.I.I.I.I.I.I.I.I.I.I.I.I.I.I.I.I.I.I.I.I.I.I.I.I.I.I.I.I.I.I.I.I.I.I.I.I.I.I.I.I.",
"I.I.I.I.5.b =                                     = b 5.I.I.I.I.I.I.I.I.I.I.I.I.I.I.I.I.I.I.I.I.I.I.I.I.I.I.I.I.I.I.I.I.I.I.I.I.I.I.I.I.I.I.I.I.I.I.I.I.I.I.I.I.I.I.I.I.I.I.I.I.I.I.I.I.I.I.I.I.I.I.I.I.I.I.I.I.I.I.I.I.I.I.I.I.I.I.I.I.I.I.I.I.I.I.I.I.I.I.I.I.I.I.I.I.I.I.I.I.I.I.I.I.I.I.I.I.I.I."
};
